inDegrees=no
num_controls=7
num_derivatives=13
num_iterations=126
num_multipliers=7
num_parameters=0
num_slacks=7
num_states=26
objective=5.667311
objective_accelerations=0.817876
objective_balance=0.057254
objective_effort=0.352057
objective_height=4.369259
objective_ligament=0.070866
solver_duration=1407.193833
status=Solve_Succeeded
success=true
DataType=double
version=3
OpenSimVersion=4.4-2022-07-23-0e9fedc
endheader
time	/jointset/ground_pelvis/pelvis_tilt/value	/jointset/ground_pelvis/pelvis_tx/value	/jointset/ground_pelvis/pelvis_ty/value	/jointset/hip_l/hip_flexion_l/value	/jointset/hip_l/hip_adduction_l/value	/jointset/hip_l/hip_rotation_l/value	/jointset/back/lumbar_extension/value	/jointset/patellofemoral_l/patellar_flexion_l/value	/jointset/knee_l/knee_flexion_l/value	/jointset/knee_l/knee_adduction_l/value	/jointset/knee_l/knee_rotation_l/value	/jointset/ankle_l/ankle_angle_l/value	/jointset/subtalar_l/subtalar_angle_l/value	/jointset/ground_pelvis/pelvis_tilt/speed	/jointset/ground_pelvis/pelvis_tx/speed	/jointset/ground_pelvis/pelvis_ty/speed	/jointset/hip_l/hip_flexion_l/speed	/jointset/hip_l/hip_adduction_l/speed	/jointset/hip_l/hip_rotation_l/speed	/jointset/back/lumbar_extension/speed	/jointset/patellofemoral_l/patellar_flexion_l/speed	/jointset/knee_l/knee_flexion_l/speed	/jointset/knee_l/knee_adduction_l/speed	/jointset/knee_l/knee_rotation_l/speed	/jointset/ankle_l/ankle_angle_l/speed	/jointset/subtalar_l/subtalar_angle_l/speed	/forceset/tau_hip_flexion_l	/forceset/tau_hip_adduction_l	/forceset/tau_hip_rotation_l	/forceset/tau_knee_flexion_l	/forceset/tau_ankle_angle_l	/forceset/tau_subtalar_angle_l	/forceset/tau_lumbar_extension	lambda_cid13_p0	lambda_cid13_p1	lambda_cid13_p2	lambda_cid13_p3	lambda_cid13_p4	lambda_cid13_p5	lambda_cid14_p0	/jointset/ground_pelvis/pelvis_tilt/accel	/jointset/ground_pelvis/pelvis_tx/accel	/jointset/ground_pelvis/pelvis_ty/accel	/jointset/hip_l/hip_flexion_l/accel	/jointset/hip_l/hip_adduction_l/accel	/jointset/hip_l/hip_rotation_l/accel	/jointset/back/lumbar_extension/accel	/jointset/patellofemoral_l/patellar_flexion_l/accel	/jointset/knee_l/knee_flexion_l/accel	/jointset/knee_l/knee_adduction_l/accel	/jointset/knee_l/knee_rotation_l/accel	/jointset/ankle_l/ankle_angle_l/accel	/jointset/subtalar_l/subtalar_angle_l/accel	gamma_cid13_p0	gamma_cid13_p1	gamma_cid13_p2	gamma_cid13_p3	gamma_cid13_p4	gamma_cid13_p5	gamma_cid14_p0
0.5	-0.4543109664449572	-0.09618554257144139	0.738020061482617	1.27802135302362	-0.4346626059106863	-0.2285082679965627	-0.2570297675143314	0.7654713683690227	0.7654713683689698	-0.1432372084519479	-0.1587026811499045	-0.00588287576365827	-0.08864615578983939	-1.062921950251101	-0.3450221175754398	-0.60762530758017	2.933902548362788	-0.2043575716778933	0.7220242412266732	-0.09348263293332351	1.875698005800923	1.875698005800988	0.09243192521858692	-0.09120983092527857	0.1522448048575013	-0.1529425104876642	-0.2182036459318271	0.01239232812484824	-0.007873033088964549	-0.1943126344151501	0.1188449334622568	0.05392016763975009	0.1988237613647268	4.84041792916561	-26.55815761150046	6.517458852311238	-11.24672616890522	-519.714672032454	-59.09089467027238	-27.13013772089544	1.135316553754843	0.8275584620355823	-0.4611923014689907	-1.750577024849463	0.737010998691746	-0.1044752710568547	1.139610598050089	-1.184765784145223	-1.184765784145181	0.09445040907444033	0.241249352927399	-0.3421317154805085	0.6024271186150894	-2.6048733046611e-07	-9.637543306686109e-07	8.224199944029032e-07	-1.857667334919628e-07	-4.339978301653481e-07	5.129097632150244e-07	-3.309264939723124e-07
0.51	-0.46488080516962	-0.0995939498011139	0.7319221007155637	1.307267204422227	-0.4366703615225529	-0.2212947578095637	-0.2579094456316472	0.7841664997554204	0.7841664997552747	-0.1423104539243908	-0.1596040650933962	-0.00437827047217619	-0.09014688437116899	-1.05089315145323	-0.3366262754790792	-0.6118362266081429	2.914871706826756	-0.1971738132715116	0.7205641164489891	-0.08252518467933997	1.863077268858173	1.863077268858201	0.09293028265750723	-0.08906860968743298	0.1486365513891032	-0.1471980249063862	-0.2252232927228741	0.01276134813608285	-0.008055567242825804	-0.1966059896265584	0.1207195826886951	0.05476631416685522	0.2040210433240037	5.172101390964624	-26.9506833608565	6.542308529422296	-11.5592986205078	-524.0632461865526	-58.57794312535943	-26.28238723562753	1.25953409327699	0.8505194529679605	-0.3815327159628676	-2.038771721951005	0.7120720684972293	-0.1840981000311803	1.062982816514581	-1.338312289922074	-1.338312289927875	0.02907781251575707	0.2005435793832262	-0.3761432453319198	0.5612834958838666	-3.039553212380969e-07	-8.037670313687034e-07	1.158462733690221e-06	-1.208933761423098e-07	-4.42794469000049e-07	5.792659549564846e-07	-3.512218583932995e-07
0.52	-0.4753257813961883	-0.1029174141359171	0.7257859325557308	1.336310860604709	-0.4386056767889673	-0.2140993122741518	-0.2586817150909237	0.8027279068442909	0.802727906844013	-0.1413784059422757	-0.1604840398104034	-0.002910941931938436	-0.09159000325308625	-1.03794945063642	-0.3280335386015719	-0.6152667861360525	2.893463505131876	-0.1898695025896973	0.718411310915034	-0.07200090132766775	1.848953146292143	1.848953146292133	0.09349061614502545	-0.08692798564279693	0.1447894546082094	-0.1414205706051231	-0.2322429395137974	0.01313036814727945	-0.008238101397111378	-0.1988993448379293	0.1225942319151149	0.05561246069391738	0.2092183252834331	5.497304335796613	-27.34402163894416	6.569512441766117	-11.87855364718814	-528.517425989245	-58.10452277685916	-25.43607394437891	1.318296957542836	0.8669374182648975	-0.3051204014563375	-2.226049056618998	0.7611214537782094	-0.2430114223110865	1.052977617587851	-1.485442908801151	-1.48544290880112	0.1068456187940214	0.2411299142854363	-0.389900377979658	0.6090208626120943	-3.909637714121673e-07	-5.779119308840916e-07	1.772367560192176e-06	-5.894566683361408e-09	-4.899013723536394e-07	6.895578188407285e-07	-3.965990023554275e-07
0.53	-0.4856368157009232	-0.1061540907265947	0.719619358053731	1.365128744255411	-0.4404676051979013	-0.2069269727144057	-0.2593510347428214	0.8211406217914724	0.8211406217913904	-0.1404419587413123	-0.1613413899000735	-0.001483315666984342	-0.09297549746586554	-1.024106341703286	-0.3192814852396851	-0.6179164443376375	2.869732983877873	-0.182501128446162	0.7159438984628018	-0.06195335703740171	1.833355461784634	1.833355461784636	0.09381174403325535	-0.08454669594881105	0.1406978450633202	-0.1356769726963055	-0.2392952220990488	0.0133032518155714	-0.00838067029965075	-0.2008153170309823	0.123821704730009	0.05650235238895692	0.2143591917529066	5.622523233421084	-27.71482532741912	6.585678454928167	-11.96015315346278	-532.8317780968488	-57.65799545730091	-24.5916561688074	1.439916878894435	0.8823943409279665	-0.2252409695383898	-2.503660783242476	0.7267846362338094	-0.2658541424997245	0.9670936368897938	-1.632004338930146	-1.632004338928553	-0.003321781933556449	0.2363817546003094	-0.4244650750447531	0.5570536455618292	-4.304034872843271e-07	-4.20430172930999e-07	2.098560625324369e-06	6.302701475813754e-08	-4.987203969887152e-07	7.580503509108591e-07	-4.135492669048201e-07
0.54	-0.4958048991127655	-0.1093026357744986	0.71343021648171	1.393697901268901	-0.4422554320170719	-0.1997827568763823	-0.2599225887913791	0.8393903452701523	0.8393903452702395	-0.1395019138926726	-0.1621749764412155	-9.774026393869648e-05	-0.09430355082144798	-1.00935927206233	-0.3104072300468194	-0.6197802001402646	2.843718177685794	-0.1750491846389174	0.7127865665777585	-0.05244778066137826	1.816354852588957	1.816354852588971	0.09421014569064311	-0.08217527594903137	0.1363792822263849	-0.1299323991656829	-0.2463475046842991	0.01347613548379554	-0.008523239202500919	-0.202731289224008	0.1250491775448871	0.05739224408391978	0.2195000582224151	5.740971312010619	-28.08612134574971	6.603840723282646	-12.05463191438803	-537.2617663659103	-57.26843984478995	-23.75004244231182	1.499089099107327	0.8913777844606255	-0.1479399216647614	-2.682906044234345	0.7778353865200331	-0.3809953088733719	0.9445840347393618	-1.766027846434769	-1.766027846434755	0.1223003726256	0.2391559754441235	-0.435291036388932	0.6092159869730521	-4.172139652054361e-07	-3.385955173532054e-07	2.106434294898524e-06	8.096953541437263e-08	-4.651783643181999e-07	7.802968137398426e-07	-3.990485159337389e-07
0.55	-0.5058212678743983	-0.1123619169920398	0.7072263638699	1.421995905826001	-0.4439682824458909	-0.1926730693940062	-0.2604018567516462	0.8574631796973577	0.8574631796973536	-0.1385576003151307	-0.162984520509923	0.001243601504050682	-0.0955740728630262	-0.9937746862402268	-0.3014363869471846	-0.6208567138321783	2.815513050530974	-0.1675151639717065	0.7090573766087832	-0.04351982909796118	1.797983080997615	1.797983080997694	0.09464341390525115	-0.07972569474757486	0.1318545497752723	-0.1241790478372682	-0.2530790219067023	0.01346491265853094	-0.008631758044593449	-0.2048065712174762	0.1265618728804065	0.05795626749821011	0.2243344086972791	5.954911941027748	-28.3386449459141	6.609956299094803	-12.12608332626155	-541.514689556945	-56.66703716925384	-22.91240468399115	1.609050687325511	0.9018497009490676	-0.06755521116435671	-2.944838967481647	0.7418460851323833	-0.3832272358066912	0.8497980613426768	-1.907016365667467	-1.907016365657846	0.002485851093735843	0.2494842813327043	-0.4662152853242781	0.5571398088651899	-4.03482729312661e-07	-2.649491128637216e-07	2.09958471783002e-06	1.003341887975748e-07	-4.34108223898722e-07	7.987007411330051e-07	-3.834229700056011e-07
0.5600000000000001	-0.5156776093050769	-0.1153311073529384	0.7010157364975291	1.450000754528284	-0.4456056605323685	-0.1856035430903369	-0.2607952657274323	0.8753454434986161	0.8753454434985226	-0.1376092248944139	-0.1637692437488264	0.002538665760358474	-0.09678731237070276	-0.9773538058755844	-0.2923890587182879	-0.6211351522523951	2.785087006721104	-0.1599547161720572	0.7047543308439277	-0.03527598376654759	1.778240727398937	1.778240727399081	0.0950225143284697	-0.07721110999267507	0.1271237798900864	-0.118475892385277	-0.2598105391292074	0.01345368983318712	-0.008740276886692287	-0.2068818532109353	0.1280745682159177	0.05852029091241115	0.2291687591720695	6.161503305146801	-28.59122033250349	6.61761037784991	-12.20681925195009	-545.8964090400007	-56.12098339612234	-22.08032867399437	1.666348007615071	0.9066748103129265	0.01167513267459825	-3.127089375244662	0.7831208130076888	-0.4957664680494692	0.8077627883387125	-2.040144247901857	-2.040144247901866	0.1114668143477071	0.2521566861326892	-0.476498523203693	0.5991768116882915	-3.89101436843225e-07	-2.011286096802094e-07	2.075067244790327e-06	1.214054014531374e-07	-4.06004354180489e-07	8.124936260031827e-07	-3.664476701289954e-07
0.5700000000000001	-0.525365915760704	-0.1182095576988727	0.6948062872625425	1.477690771589709	-0.4471672208791734	-0.1785797214428842	-0.2611095981866504	0.8930235624345696	0.8930235624344998	-0.1366572017819283	-0.1645283281787567	0.003785437040148452	-0.09794366342080586	-0.9601809066454607	-0.2832978130635582	-0.6206223283455363	2.752567303431367	-0.1523581249057909	0.6999171890367176	-0.02772109153389246	1.757166439173901	1.75716643917383	0.09537027775289139	-0.07459960901267526	0.1221993674092611	-0.1128065657199634	-0.2662637727714742	0.01316171675623752	-0.008796321398185791	-0.2089004739086298	0.1294683732031931	0.05897858469482599	0.2337229427544416	6.342853337668408	-28.79320430372974	6.616908045140045	-12.18265066578231	-550.014575126103	-55.53883727120793	-21.25743579650771	1.761689271184735	0.9108557184465376	0.09086295802570647	-3.366842428898191	0.7475962689715604	-0.4918913300628681	0.7097649220009394	-2.173492833277153	-2.1734928333096	-0.005308580969025942	0.2670056259022365	-0.5050465974647066	0.5487592769973703	-3.641137631404292e-07	-1.483648502083036e-07	1.987437179129741e-06	1.311225529335313e-07	-3.695831208971426e-07	8.033874839442912e-07	-3.421013649970126e-07
0.58	-0.534878707545914	-0.1209969943331814	0.6886059216542916	1.505045105293704	-0.4486528817161932	-0.1716071118721435	-0.261352299227251	0.9104844541435878	0.9104844541434685	-0.1357020489727278	-0.1652610258344717	0.004982037397743193	-0.09904373146764728	-0.942250871796372	-0.274186316393172	-0.6193184269051559	2.717950335219248	-0.1447748142181058	0.6945119155092689	-0.02094970005035074	1.734795282009962	1.734795282009675	0.09564845367897416	-0.07193375515394031	0.117089595450724	-0.1072192917328762	-0.2727170064132063	0.01286974367928025	-0.008852365909807109	-0.2109190946063621	0.1308621781903878	0.05943687847719688	0.2382771263374115	6.517905976872771	-28.99514265779439	6.617407027260335	-12.17389831021855	-554.2510929270794	-55.00692187650324	-20.44672097909863	1.817775131408377	0.910725013444117	0.1698906393788679	-3.546542359720628	0.7804646972913719	-0.6093928120972193	0.6510626385162799	-2.299518035682456	-2.299518035682477	0.097549314679943	0.2630272618796261	-0.5135704187461765	0.5827662760429266	-3.253131278313984e-07	-1.100005709189546e-07	1.817613969590787e-06	1.260530200927757e-07	-3.223299722731843e-07	7.644593533266133e-07	-3.081556111603537e-07
